<svg width="56" height="56" viewBox="0 0 56 56" fill="none" xmlns="http://www.w3.org/2000/svg">
<rect width="56" height="56" rx="28" fill="url(#paint0_linear_955_4919)"/>
<path d="M39.9661 20.6957C39.5735 16.546 36.0494 15.1553 31.5961 14.7586V9H28.1501V14.6049C27.2453 14.6049 26.3185 14.6223 25.3991 14.6421V9H21.9531L21.9506 14.7537C21.2043 14.7685 20.4703 14.7834 19.7557 14.7834V14.7661L15.0024 14.7636V18.5068C15.0024 18.5068 17.5486 18.4572 17.5047 18.5043C18.9021 18.5043 19.3557 19.3274 19.4874 20.0388V26.5981C19.585 26.5981 19.7093 26.6031 19.8508 26.6229H19.4874L19.485 35.8124C19.424 36.2587 19.1655 36.9701 18.19 36.9726C18.2339 37.0123 15.6853 36.9726 15.6853 36.9726L15 41.1571H19.4874C20.3215 41.1571 21.1434 41.172 21.9482 41.1769L21.9506 47H25.3942V41.2389C26.338 41.2587 27.2526 41.2662 28.1476 41.2662L28.1452 47H31.5912V41.1893C37.3859 40.8522 41.4465 39.3673 41.9489 33.8342C42.3562 29.3795 40.2954 27.3889 37.0054 26.5858C39.0077 25.5545 40.2588 23.7325 39.9661 20.6957ZM35.1421 33.1451C35.1421 37.4957 27.8135 37.0023 25.4747 37.0023V29.2853C27.8135 29.2903 35.1421 28.6086 35.1421 33.1451ZM33.5374 22.26C33.5374 26.2189 27.4209 25.7553 25.4747 25.7578V18.7621C27.4233 18.7621 33.5399 18.1325 33.5374 22.26Z" fill="white"/>
<path d="M19 26H20V26.3842H19V26Z" fill="white"/>
<defs>
<linearGradient id="paint0_linear_955_4919" x1="-9.67273" y1="95.2" x2="45.8182" y2="1.92341e-06" gradientUnits="userSpaceOnUse">
<stop stop-color="#FF930F"/>
<stop offset="1" stop-color="#FBC411"/>
</linearGradient>
</defs>
</svg>
