<svg width="96" height="96" viewBox="0 0 96 96" fill="none" xmlns="http://www.w3.org/2000/svg">
<g id="ETH">
<rect width="96" height="96" rx="48" fill="url(#paint0_linear_955_3960)"/>
<rect width="96" height="96" rx="48" fill="url(#paint1_linear_955_3960)"/>
<g id="Ethereum">
<path id="Vector" d="M47.7656 16.582L47.332 18.0186V59.6998L47.7656 60.1217L67.6018 48.6852L47.7656 16.582Z" fill="#343434"/>
<path id="Vector_2" d="M47.7624 16.582L27.9258 48.6852L47.7624 60.1217V39.8908V16.582Z" fill="#8C8C8C"/>
<path id="Vector_3" d="M47.7639 63.7846L47.5195 64.0753V78.9227L47.7639 79.6186L67.6122 52.354L47.7639 63.7846Z" fill="#3C3C3B"/>
<path id="Vector_4" d="M47.7624 79.6186V63.7846L27.9258 52.354L47.7624 79.6186Z" fill="#8C8C8C"/>
<path id="Vector_5" d="M47.7617 60.1206L67.5979 48.684L47.7617 39.8896V60.1206Z" fill="#141414"/>
<path id="Vector_6" d="M27.9258 48.6842L47.7624 60.1207V39.8898L27.9258 48.6842Z" fill="#393939"/>
</g>
</g>
<defs>
<linearGradient id="paint0_linear_955_3960" x1="147.491" y1="-39.2727" x2="-37.5273" y2="145.745" gradientUnits="userSpaceOnUse">
<stop stop-color="#E9E9E7"/>
<stop offset="0.271524" stop-color="#EFEEEC"/>
<stop offset="0.608677" stop-color="#EEEEEC"/>
<stop offset="1" stop-color="#D5D4D0"/>
</linearGradient>
<linearGradient id="paint1_linear_955_3960" x1="10" y1="164" x2="108.259" y2="143.218" gradientUnits="userSpaceOnUse">
<stop stop-color="#EEEDF1"/>
<stop offset="1" stop-color="white"/>
</linearGradient>
</defs>
</svg>
