<svg width="56" height="56" viewBox="0 0 56 56" fill="none" xmlns="http://www.w3.org/2000/svg">
<rect width="56" height="56" rx="28" fill="url(#paint0_linear_955_4923)"/>
<path d="M37.4542 16H18.5447C15.0679 16 12.8643 19.7503 14.6134 22.7821L26.2836 43.0094C27.0452 44.3302 28.9537 44.3302 29.7152 43.0094L41.3879 22.7821C43.1347 19.7552 40.931 16 37.4566 16H37.4542ZM26.2741 36.9436L23.7326 32.0248L17.6 21.0568C17.1954 20.3548 17.6951 19.4552 18.5423 19.4552H26.2718V36.9459L26.2741 36.9436ZM38.3942 21.0545L32.264 32.0272L29.7224 36.9436V19.4529H37.4519C38.299 19.4529 38.7987 20.3525 38.3942 21.0545Z" fill="white"/>
<defs>
<linearGradient id="paint0_linear_955_4923" x1="52.1818" y1="-4.32727" x2="8.14545" y2="68.4727" gradientUnits="userSpaceOnUse">
<stop stop-color="#04BEFE"/>
<stop offset="1" stop-color="#4481EB"/>
</linearGradient>
</defs>
</svg>
