<svg width="56" height="56" viewBox="0 0 56 56" fill="none" xmlns="http://www.w3.org/2000/svg">
<rect width="56" height="56" rx="28" fill="url(#paint0_linear_955_4931)"/>
<path fill-rule="evenodd" clip-rule="evenodd" d="M41.3545 21.1073L41.3545 21.1073C40.2407 20.0152 39.0638 18.8613 38.0251 17.9304L37.9199 17.856C37.7448 17.7141 37.5475 17.6027 37.336 17.5266L36.5344 17.3756C31.0032 16.3334 13.0738 12.9552 12.7049 13.0005C12.5959 13.0159 12.4916 13.0558 12.3998 13.1173L12.2999 13.197C12.1768 13.3232 12.0833 13.4757 12.0263 13.6433L12 13.7123V14.0895V14.1479C13.2172 17.5707 16.3793 25.2145 19.2989 32.2723L19.299 32.2723C21.7674 38.2393 24.0625 43.7874 24.8626 46.0119L24.8629 46.0128C24.9682 46.3424 25.1681 46.9682 25.5413 47H25.6254C25.8254 47 26.6776 45.8631 26.6776 45.8631C26.6776 45.8631 41.9128 27.2059 43.4543 25.219C43.6538 24.9743 43.8299 24.711 43.9803 24.4328C44.0584 23.99 43.9007 23.5382 43.5647 23.2428C42.9085 22.6309 42.1476 21.885 41.3548 21.1076L41.3545 21.1073ZM31 25L37.3029 20L41 23.2585L31 25ZM17 16L28.1252 25L35 19.2769L17 16ZM28.6289 27.872L40 26L27 42L28.6289 27.872ZM27 27.1539L15 17L25.2635 42L27 27.1539Z" fill="white"/>
<defs>
<linearGradient id="paint0_linear_955_4931" x1="36.6545" y1="8.14545" x2="1.82617e-06" y2="83.4909" gradientUnits="userSpaceOnUse">
<stop stop-color="#FC070C"/>
<stop offset="1" stop-color="#F45C43"/>
</linearGradient>
</defs>
</svg>
