<svg width="56" height="56" viewBox="0 0 56 56" fill="none" xmlns="http://www.w3.org/2000/svg">
<rect width="56" height="56" rx="28" fill="url(#paint0_linear_955_4939)"/>
<path d="M36 32.7717C36 28.5602 33.4925 27.1162 28.4776 26.5147C24.8955 26.0333 24.179 25.0707 24.179 23.3859C24.179 21.701 25.3732 20.6183 27.7611 20.6183C29.9104 20.6183 31.1045 21.3403 31.7015 23.1453C31.821 23.5063 32.1792 23.7469 32.5374 23.7469H34.4477C34.9254 23.7469 35.2836 23.3859 35.2836 22.9047V22.7843C34.8059 20.1369 32.6566 18.0914 29.9104 17.8508V14.9628C29.9104 14.4814 29.5522 14.1204 28.9553 14H27.1642C26.6865 14 26.3283 14.361 26.2088 14.9628V17.7304C22.6267 18.2118 20.3582 20.6183 20.3582 23.6267C20.3582 27.5977 22.7462 29.1618 27.7611 29.7636C31.1045 30.3652 32.1792 31.0872 32.1792 33.0126C32.1792 34.938 30.5073 36.2615 28.2389 36.2615C25.1342 36.2615 24.0595 34.9377 23.7013 33.1327C23.5821 32.6516 23.2239 32.4107 22.8657 32.4107H20.8356C20.3582 32.4107 20 32.7717 20 33.2531V33.3736C20.4774 36.3817 22.388 38.5476 26.3283 39.1495V42.0374C26.3283 42.5186 26.6865 42.8796 27.2834 43H29.0745C29.5522 43 29.9104 42.639 30.0299 42.0374V39.1495C33.612 38.5476 36 36.0207 36 32.7717Z" fill="white"/>
<path fill-rule="evenodd" clip-rule="evenodd" d="M11.7814 22.3886C8.35657 31.5452 13.0803 41.8908 22.2915 45.2203C22.6457 45.4583 23 45.9338 23 46.2905V47.9555C23 48.1932 23 48.3123 22.8818 48.431C22.7639 48.9067 22.2915 49.1445 21.819 48.9067C15.206 46.7663 10.1279 41.6528 8.00229 34.9937C4.45955 23.6968 10.6004 11.6862 21.819 8.11872C21.9372 8 22.1733 8 22.2915 8C22.7639 8.11872 23 8.47547 23 8.95123V10.6159C23 11.2107 22.7639 11.5675 22.2915 11.8052C17.4498 13.5889 13.5528 17.3941 11.7814 22.3886ZM34.1182 8.56737C34.2361 8.09299 34.7085 7.85594 35.181 8.09299C41.6758 10.2273 46.8721 15.3259 48.9977 22.0845C52.5404 33.3486 46.3996 45.3245 35.181 48.8816C35.0628 49 34.8267 49 34.7085 49C34.2361 48.8816 34 48.5259 34 48.0515V46.3916C34 45.7986 34.2361 45.4429 34.7085 45.2058C39.5502 43.4273 43.4472 39.6331 45.2186 34.6531C48.6434 25.5229 43.9197 15.2073 34.7085 11.8875C34.3543 11.6501 34 11.176 34 10.7016V9.04175C34 8.80442 34 8.68603 34.1182 8.56737Z" fill="white"/>
<defs>
<linearGradient id="paint0_linear_955_4939" x1="31.0545" y1="22.9091" x2="-22.4" y2="102.327" gradientUnits="userSpaceOnUse">
<stop stop-color="#2775CA"/>
<stop offset="1" stop-color="#00BBF9"/>
</linearGradient>
</defs>
</svg>
