<svg width="335" height="278" viewBox="0 0 335 278" fill="none" xmlns="http://www.w3.org/2000/svg">
<rect y="0.0847168" width="335" height="277.085" rx="22.7119" fill="url(#paint0_linear_955_5129)"/>
<rect x="17" y="104.476" width="300.279" height="67.4013" rx="12" fill="#0D0D12"/>
<path d="M33.0205 132.297C31.7065 132.297 30.8306 131.472 30.8306 130.221C30.8306 129.003 31.7065 128.279 33.2744 128.197L35.166 128.101V127.479C35.166 126.616 34.6392 126.14 33.6807 126.14C32.8872 126.14 32.3286 126.476 32.1509 127.067H31.0908C31.2178 125.962 32.2842 125.207 33.6934 125.207C35.312 125.207 36.2388 126.032 36.2388 127.467V132.183H35.2104V131.148H35.1025C34.7725 131.885 34.0234 132.297 33.0205 132.297ZM33.3315 131.351C34.3726 131.351 35.166 130.659 35.166 129.739V128.927L33.395 129.009C32.4302 129.053 31.9224 129.466 31.9224 130.183C31.9224 130.907 32.4619 131.351 33.3315 131.351ZM38.794 127.149C38.794 125.956 39.8096 125.156 41.3267 125.156C42.7612 125.156 43.7324 125.873 43.8594 127.022H42.8184C42.6914 126.419 42.1138 126.051 41.3076 126.051C40.4317 126.051 39.8667 126.457 39.8667 127.086C39.8667 127.613 40.2222 127.911 41.0855 128.101L42.0567 128.323C43.396 128.628 44.0054 129.212 44.0054 130.209C44.0054 131.478 42.9453 132.303 41.314 132.303C39.7525 132.303 38.7178 131.573 38.5972 130.393H39.6953C39.854 131.028 40.4634 131.396 41.3521 131.396C42.2915 131.396 42.8882 130.97 42.8882 130.31C42.8882 129.764 42.5518 129.472 41.6758 129.276L40.6538 129.041C39.4097 128.755 38.794 128.127 38.794 127.149ZM46.3765 127.149C46.3765 125.956 47.3921 125.156 48.9092 125.156C50.3438 125.156 51.315 125.873 51.4419 127.022H50.4009C50.274 126.419 49.6963 126.051 48.8902 126.051C48.0142 126.051 47.4493 126.457 47.4493 127.086C47.4493 127.613 47.8047 127.911 48.668 128.101L49.6392 128.323C50.9786 128.628 51.5879 129.212 51.5879 130.209C51.5879 131.478 50.5279 132.303 48.8965 132.303C47.335 132.303 46.3003 131.573 46.1797 130.393H47.2779C47.4366 131.028 48.0459 131.396 48.9346 131.396C49.8741 131.396 50.4707 130.97 50.4707 130.31C50.4707 129.764 50.1343 129.472 49.2583 129.276L48.2364 129.041C46.9922 128.755 46.3765 128.127 46.3765 127.149ZM58.3262 130.399H59.3736C59.1641 131.535 58.0723 132.303 56.6251 132.303C54.7335 132.303 53.6353 131.167 53.6353 129.206V128.171C53.6353 126.356 54.7969 125.162 56.5489 125.162C58.3389 125.162 59.3926 126.349 59.3926 128.343V129.015H54.7017V129.295C54.7017 130.558 55.4507 131.37 56.6251 131.37C57.4947 131.37 58.1358 131.002 58.3262 130.399ZM56.5425 126.089C55.3936 126.089 54.7017 126.876 54.7017 128.197H58.3262C58.3262 126.883 57.6534 126.089 56.5425 126.089ZM62.8746 123.442H63.941V125.308H66.734V126.229H63.9537V130.114C63.9537 130.863 64.4805 131.269 65.4517 131.269C65.8389 131.269 66.5308 131.25 66.7149 131.231V132.145C66.5435 132.177 65.7056 132.208 65.3756 132.208C63.668 132.208 62.8746 131.561 62.8746 130.126V126.229H61.0401V125.308H62.8746V123.442ZM108.846 132.297C107.532 132.297 106.656 131.472 106.656 130.221C106.656 129.003 107.532 128.279 109.1 128.197L110.991 128.101V127.479C110.991 126.616 110.465 126.14 109.506 126.14C108.713 126.14 108.154 126.476 107.976 127.067H106.916C107.043 125.962 108.11 125.207 109.519 125.207C111.137 125.207 112.064 126.032 112.064 127.467V132.183H111.036V131.148H110.928C110.598 131.885 109.849 132.297 108.846 132.297ZM109.157 131.351C110.198 131.351 110.991 130.659 110.991 129.739V128.927L109.22 129.009C108.256 129.053 107.748 129.466 107.748 130.183C107.748 130.907 108.287 131.351 109.157 131.351ZM120.446 127.105V132.177H119.475V127.422C119.475 126.584 119.171 126.146 118.593 126.146C117.99 126.146 117.622 126.673 117.622 127.53V132.177H116.657V127.416C116.657 126.584 116.352 126.146 115.768 126.146C115.159 126.146 114.778 126.673 114.778 127.53V132.177H113.807V125.289H114.772V126.26H114.886C115.057 125.569 115.552 125.162 116.2 125.162C116.847 125.162 117.304 125.562 117.45 126.241H117.565C117.742 125.581 118.295 125.162 118.987 125.162C119.945 125.162 120.446 125.829 120.446 127.105ZM124.709 132.303C122.887 132.303 121.726 131.116 121.726 129.257V128.216C121.726 126.356 122.887 125.169 124.709 125.169C126.531 125.169 127.693 126.356 127.693 128.216V129.257C127.693 131.116 126.531 132.303 124.709 132.303ZM124.709 126.121C123.529 126.121 122.792 126.959 122.792 128.311V129.155C122.792 130.513 123.529 131.345 124.709 131.345C125.89 131.345 126.626 130.513 126.626 129.155V128.311C126.626 126.959 125.89 126.121 124.709 126.121ZM135.11 125.289V132.177H134.075V130.964H133.987C133.618 131.821 132.831 132.303 131.784 132.303C130.286 132.303 129.473 131.408 129.473 129.758V125.289H130.552V129.485C130.552 130.729 131.06 131.313 132.133 131.313C133.269 131.313 134.031 130.52 134.031 129.345V125.289H135.11ZM137.056 132.177V125.289H138.091V126.502H138.179C138.548 125.645 139.335 125.162 140.382 125.162C141.88 125.162 142.693 126.057 142.693 127.708V132.177H141.614V127.981C141.614 126.737 141.106 126.153 140.033 126.153C138.897 126.153 138.135 126.946 138.135 128.12V132.177H137.056ZM146.283 123.442H147.349V125.308H150.142V126.229H147.362V130.114C147.362 130.863 147.888 131.269 148.86 131.269C149.247 131.269 149.939 131.25 150.123 131.231V132.145C149.951 132.177 149.114 132.208 148.783 132.208C147.076 132.208 146.283 131.561 146.283 130.126V126.229H144.448V125.308H146.283V123.442ZM36.1943 154.046H35.3311C33.7886 154.046 33.2998 153.557 33.2998 151.99V150.568C33.2998 149.59 32.7285 149.019 31.2432 149.171V148.022C32.7285 148.175 33.2998 147.61 33.2998 146.626V145.204C33.2998 143.636 33.7886 143.147 35.3311 143.147H36.1943V144.017H35.5024C34.5503 144.017 34.3662 144.239 34.3662 145.344V147.038C34.3662 147.927 33.6997 148.517 32.4111 148.549V148.651C33.6997 148.676 34.3662 149.266 34.3662 150.155V151.85C34.3662 152.954 34.5503 153.177 35.5024 153.177H36.1943V154.046ZM40.6411 148.105H39.4795V144.017H40.6411V148.105ZM43.1231 148.105H41.9551V144.017H43.1231V148.105ZM48.1856 153.297C46.8716 153.297 45.9956 152.472 45.9956 151.221C45.9956 150.003 46.8716 149.279 48.4395 149.197L50.3311 149.101V148.479C50.3311 147.616 49.8042 147.14 48.8457 147.14C48.0523 147.14 47.4937 147.476 47.316 148.067H46.2559C46.3829 146.962 47.4493 146.207 48.8584 146.207C50.4771 146.207 51.4038 147.032 51.4038 148.467V153.183H50.3755V152.148H50.2676C49.9375 152.885 49.1885 153.297 48.1856 153.297ZM48.4966 152.351C49.5376 152.351 50.3311 151.659 50.3311 150.739V149.927L48.5601 150.009C47.5953 150.053 47.0874 150.466 47.0874 151.183C47.0874 151.907 47.627 152.351 48.4966 152.351ZM53.959 148.149C53.959 146.956 54.9747 146.156 56.4918 146.156C57.9263 146.156 58.8975 146.873 59.0245 148.022H57.9835C57.8565 147.419 57.2789 147.051 56.4727 147.051C55.5967 147.051 55.0318 147.457 55.0318 148.086C55.0318 148.613 55.3873 148.911 56.2505 149.101L57.2217 149.323C58.5611 149.628 59.1705 150.212 59.1705 151.209C59.1705 152.478 58.1104 153.303 56.4791 153.303C54.9175 153.303 53.8829 152.573 53.7623 151.393H54.8604C55.0191 152.028 55.6285 152.396 56.5171 152.396C57.4566 152.396 58.0533 151.97 58.0533 151.31C58.0533 150.764 57.7169 150.472 56.8409 150.276L55.8189 150.041C54.5748 149.755 53.959 149.127 53.959 148.149ZM61.5416 148.149C61.5416 146.956 62.5572 146.156 64.0743 146.156C65.5089 146.156 66.4801 146.873 66.607 148.022H65.566C65.439 147.419 64.8614 147.051 64.0553 147.051C63.1793 147.051 62.6143 147.457 62.6143 148.086C62.6143 148.613 62.9698 148.911 63.8331 149.101L64.8043 149.323C66.1436 149.628 66.753 150.212 66.753 151.209C66.753 152.478 65.6929 153.303 64.0616 153.303C62.5001 153.303 61.4654 152.573 61.3448 151.393H62.4429C62.6016 152.028 63.211 152.396 64.0997 152.396C65.0391 152.396 65.6358 151.97 65.6358 151.31C65.6358 150.764 65.2994 150.472 64.4234 150.276L63.4014 150.041C62.1573 149.755 61.5416 149.127 61.5416 148.149ZM73.4913 151.399H74.5387C74.3292 152.535 73.2374 153.303 71.7901 153.303C69.8985 153.303 68.8004 152.167 68.8004 150.206V149.171C68.8004 147.356 69.962 146.162 71.714 146.162C73.504 146.162 74.5577 147.349 74.5577 149.343V150.015H69.8668V150.295C69.8668 151.558 70.6158 152.37 71.7901 152.37C72.6598 152.37 73.3009 152.002 73.4913 151.399ZM71.7076 147.089C70.5587 147.089 69.8668 147.876 69.8668 149.197H73.4913C73.4913 147.883 72.8185 147.089 71.7076 147.089ZM78.0397 144.442H79.1061V146.308H81.899V147.229H79.1188V151.114C79.1188 151.863 79.6456 152.269 80.6168 152.269C81.004 152.269 81.6959 152.25 81.88 152.231V153.145C81.7086 153.177 80.8707 153.208 80.5406 153.208C78.8331 153.208 78.0397 152.561 78.0397 151.126V147.229H76.2052V146.308H78.0397V144.442ZM86.1364 148.105H84.9747V144.017H86.1364V148.105ZM88.6183 148.105H87.4503V144.017H88.6183V148.105ZM94.3791 148.34C93.7506 148.34 93.2301 147.806 93.2301 147.165C93.2301 146.524 93.7506 145.991 94.3791 145.991C95.0075 145.991 95.528 146.524 95.528 147.165C95.528 147.806 95.0075 148.34 94.3791 148.34ZM94.3791 153.215C93.7506 153.215 93.2301 152.688 93.2301 152.04C93.2301 151.399 93.7506 150.872 94.3791 150.872C95.0075 150.872 95.528 151.399 95.528 152.04C95.528 152.688 95.0075 153.215 94.3791 153.215ZM139.297 155.284H138.275L139.062 151.158H140.49L139.297 155.284ZM154.379 148.105H153.218V144.017H154.379V148.105ZM156.861 148.105H155.693V144.017H156.861V148.105ZM161.924 153.297C160.61 153.297 159.734 152.472 159.734 151.221C159.734 150.003 160.61 149.279 162.178 149.197L164.069 149.101V148.479C164.069 147.616 163.542 147.14 162.584 147.14C161.79 147.14 161.232 147.476 161.054 148.067H159.994C160.121 146.962 161.187 146.207 162.597 146.207C164.215 146.207 165.142 147.032 165.142 148.467V153.183H164.114V152.148H164.006C163.676 152.885 162.927 153.297 161.924 153.297ZM162.235 152.351C163.276 152.351 164.069 151.659 164.069 150.739V149.927L162.298 150.009C161.333 150.053 160.826 150.466 160.826 151.183C160.826 151.907 161.365 152.351 162.235 152.351ZM173.524 148.105V153.177H172.553V148.422C172.553 147.584 172.248 147.146 171.671 147.146C171.068 147.146 170.7 147.673 170.7 148.53V153.177H169.735V148.416C169.735 147.584 169.43 147.146 168.846 147.146C168.237 147.146 167.856 147.673 167.856 148.53V153.177H166.885V146.289H167.849V147.26H167.964C168.135 146.569 168.63 146.162 169.278 146.162C169.925 146.162 170.382 146.562 170.528 147.241H170.642C170.82 146.581 171.372 146.162 172.064 146.162C173.023 146.162 173.524 146.829 173.524 148.105ZM177.787 153.303C175.965 153.303 174.804 152.116 174.804 150.257V149.216C174.804 147.356 175.965 146.169 177.787 146.169C179.609 146.169 180.77 147.356 180.77 149.216V150.257C180.77 152.116 179.609 153.303 177.787 153.303ZM177.787 147.121C176.606 147.121 175.87 147.959 175.87 149.311V150.155C175.87 151.513 176.606 152.345 177.787 152.345C178.968 152.345 179.704 151.513 179.704 150.155V149.311C179.704 147.959 178.968 147.121 177.787 147.121ZM188.188 146.289V153.177H187.153V151.964H187.064C186.696 152.821 185.909 153.303 184.862 153.303C183.364 153.303 182.551 152.408 182.551 150.758V146.289H183.63V150.485C183.63 151.729 184.138 152.313 185.211 152.313C186.347 152.313 187.109 151.52 187.109 150.345V146.289H188.188ZM190.134 153.177V146.289H191.168V147.502H191.257C191.625 146.645 192.413 146.162 193.46 146.162C194.958 146.162 195.77 147.057 195.77 148.708V153.177H194.691V148.981C194.691 147.737 194.184 147.153 193.111 147.153C191.975 147.153 191.213 147.946 191.213 149.12V153.177H190.134ZM199.36 144.442H200.427V146.308H203.22V147.229H200.439V151.114C200.439 151.863 200.966 152.269 201.937 152.269C202.325 152.269 203.017 152.25 203.201 152.231V153.145C203.029 153.177 202.191 153.208 201.861 153.208C200.154 153.208 199.36 152.561 199.36 151.126V147.229H197.526V146.308H199.36V144.442ZM207.457 148.105H206.295V144.017H207.457V148.105ZM209.939 148.105H208.771V144.017H209.939V148.105ZM215.7 148.34C215.071 148.34 214.551 147.806 214.551 147.165C214.551 146.524 215.071 145.991 215.7 145.991C216.328 145.991 216.849 146.524 216.849 147.165C216.849 147.806 216.328 148.34 215.7 148.34ZM215.7 153.215C215.071 153.215 214.551 152.688 214.551 152.04C214.551 151.399 215.071 150.872 215.7 150.872C216.328 150.872 216.849 151.399 216.849 152.04C216.849 152.688 216.328 153.215 215.7 153.215ZM273.884 154.046V153.177H274.576C275.528 153.177 275.713 152.954 275.713 151.85V150.155C275.713 149.266 276.379 148.676 277.668 148.651V148.549C276.379 148.517 275.713 147.927 275.713 147.038V145.344C275.713 144.239 275.528 144.017 274.576 144.017H273.884V143.147H274.748C276.29 143.147 276.779 143.636 276.779 145.204V146.626C276.779 147.61 277.35 148.175 278.836 148.022V149.171C277.35 149.019 276.779 149.59 276.779 150.568V151.99C276.779 153.557 276.29 154.046 274.748 154.046H273.884Z" fill="white"/>
<path d="M74.9894 127.194H68.2735V126.146H74.9894V127.194ZM74.9894 130.088H68.2735V129.041H74.9894V130.088ZM158.397 127.194H151.681V126.146H158.397V127.194ZM158.397 130.088H151.681V129.041H158.397V130.088ZM101.301 148.105H100.14V144.017H101.301V148.105ZM103.783 148.105H102.615V144.017H103.783V148.105ZM110.103 153.177H108.986V145.045H106.218V144.017H112.87V145.045H110.103V153.177ZM120.485 149.336C120.485 151.869 119.209 153.367 117.127 153.367C115.045 153.367 113.769 151.869 113.769 149.336V147.857C113.769 145.324 115.045 143.826 117.127 143.826C119.209 143.826 120.485 145.324 120.485 147.857V149.336ZM117.127 152.307C118.517 152.307 119.355 151.24 119.355 149.33V147.864C119.355 145.953 118.517 144.886 117.127 144.886C115.737 144.886 114.899 145.953 114.899 147.864V149.33C114.899 151.24 115.737 152.307 117.127 152.307ZM122.672 153.177H121.662V144.017H122.735L126.658 151.145H126.747V144.017H127.756V153.177H126.696L122.76 146.029H122.672V153.177ZM131.632 148.105H130.47V144.017H131.632V148.105ZM134.114 148.105H132.946V144.017H134.114V148.105ZM230.205 148.105H229.043V144.017H230.205V148.105ZM232.687 148.105H231.519V144.017H232.687V148.105ZM235.527 146.594C235.527 144.982 236.721 143.826 238.39 143.826C240.072 143.826 241.228 144.867 241.228 146.397C241.228 147.349 240.796 148.111 239.336 149.704L237.178 152.053V152.161H241.374V153.177H235.578V152.402L238.676 148.955C239.837 147.654 240.117 147.165 240.117 146.442C240.117 145.458 239.425 144.81 238.358 144.81C237.305 144.81 236.606 145.515 236.606 146.594V146.632H235.527V146.594ZM246.03 153.215C245.401 153.215 244.881 152.688 244.881 152.04C244.881 151.399 245.401 150.872 246.03 150.872C246.658 150.872 247.179 151.399 247.179 152.04C247.179 152.688 246.658 153.215 246.03 153.215ZM251.416 153.177L255.574 145.102V145.02H250.604V144.017H256.716V145.052L252.609 153.177H251.416ZM261.119 153.361C259.411 153.361 258.205 152.307 258.11 150.733H259.189C259.291 151.691 260.109 152.351 261.182 152.351C262.363 152.351 263.15 151.52 263.15 150.276C263.15 149.019 262.357 148.168 261.182 148.168C260.363 148.168 259.684 148.543 259.322 149.19H258.262L258.726 144.017H263.734V145.026H259.608L259.354 148.016H259.456C259.906 147.47 260.56 147.184 261.366 147.184C263.061 147.184 264.242 148.448 264.242 150.25C264.242 152.104 262.979 153.361 261.119 153.361ZM268.117 148.105H266.956V144.017H268.117V148.105ZM270.599 148.105H269.431V144.017H270.599V148.105Z" fill="#5DB0E2"/>
<path d="M79.7726 132.177H78.6554V124.045H75.8878V123.017H82.5402V124.045H79.7726V132.177ZM90.1544 128.336C90.1544 130.869 88.8786 132.367 86.7965 132.367C84.7145 132.367 83.4386 130.869 83.4386 128.336V126.857C83.4386 124.324 84.7145 122.826 86.7965 122.826C88.8786 122.826 90.1544 124.324 90.1544 126.857V128.336ZM86.7965 131.307C88.1867 131.307 89.0245 130.24 89.0245 128.33V126.864C89.0245 124.953 88.1867 123.886 86.7965 123.886C85.4064 123.886 84.5685 124.953 84.5685 126.864V128.33C84.5685 130.24 85.4064 131.307 86.7965 131.307ZM92.3415 132.177H91.3322V123.017H92.4049L96.3278 130.145H96.4167V123.017H97.4259V132.177H96.3659L92.4303 125.029H92.3415V132.177ZM159.702 125.594C159.702 123.982 160.895 122.826 162.565 122.826C164.247 122.826 165.402 123.867 165.402 125.397C165.402 126.349 164.971 127.111 163.511 128.704L161.352 131.053V131.161H165.548V132.177H159.753V131.402L162.85 127.955C164.012 126.654 164.291 126.165 164.291 125.442C164.291 124.458 163.599 123.81 162.533 123.81C161.479 123.81 160.781 124.515 160.781 125.594V125.632H159.702V125.594ZM170.204 132.215C169.576 132.215 169.056 131.688 169.056 131.04C169.056 130.399 169.576 129.872 170.204 129.872C170.833 129.872 171.353 130.399 171.353 131.04C171.353 131.688 170.833 132.215 170.204 132.215ZM175.591 132.177L179.748 124.102V124.02H174.778V123.017H180.891V124.052L176.784 132.177H175.591ZM185.293 132.361C183.586 132.361 182.38 131.307 182.285 129.733H183.364C183.465 130.691 184.284 131.351 185.357 131.351C186.537 131.351 187.325 130.52 187.325 129.276C187.325 128.019 186.531 127.168 185.357 127.168C184.538 127.168 183.859 127.543 183.497 128.19H182.437L182.9 123.017H187.909V124.026H183.783L183.529 127.016H183.63C184.081 126.47 184.735 126.184 185.541 126.184C187.236 126.184 188.416 127.448 188.416 129.25C188.416 131.104 187.153 132.361 185.293 132.361Z" fill="#FCEF8F"/>
<path d="M104.424 132.177L103.695 131.237C102.971 131.967 102.108 132.342 101.117 132.342C99.5114 132.342 98.3879 131.294 98.3879 129.802C98.3879 128.8 98.9338 127.949 100.051 127.219L100.343 127.022C99.6447 126.172 99.3146 125.448 99.3146 124.788C99.3146 123.626 100.159 122.826 101.365 122.826C102.558 122.826 103.39 123.626 103.39 124.788C103.39 125.708 102.939 126.362 101.682 127.187L103.656 129.669C103.891 129.117 104.012 128.463 104.037 127.613V127.555H104.958V127.651C104.92 128.774 104.697 129.701 104.266 130.456L105.681 132.177H104.424ZM101.359 123.715C100.736 123.715 100.267 124.178 100.267 124.801C100.267 125.315 100.508 125.803 101.143 126.565C102.133 125.911 102.45 125.473 102.45 124.801C102.45 124.178 101.981 123.715 101.359 123.715ZM100.629 127.885C99.7907 128.406 99.4035 129.003 99.4035 129.752C99.4035 130.736 100.108 131.396 101.155 131.396C101.974 131.396 102.679 131.097 103.142 130.545L100.882 127.72L100.629 127.885Z" fill="#D56565"/>
<defs>
<linearGradient id="paint0_linear_955_5129" x1="363.145" y1="40.3983" x2="237.846" y2="343.982" gradientUnits="userSpaceOnUse">
<stop stop-color="#FCB69F"/>
<stop offset="1" stop-color="#FFECD2"/>
</linearGradient>
</defs>
</svg>
