<svg width="335" height="278" viewBox="0 0 335 278" fill="none" xmlns="http://www.w3.org/2000/svg">
<rect y="0.169434" width="335" height="277.085" rx="22.7119" fill="url(#paint0_linear_955_5143)"/>
<rect x="19" y="64.645" width="296.279" height="149.063" rx="12" fill="#0D0D12"/>
<path d="M37.9617 92.1764H33.1375V91.1798H34.991V84.0133H33.1375V83.0167H37.9617V84.0133H36.1082V91.1798H37.9617V92.1764ZM40.3198 92.1764V85.2892H41.3544V86.5016H41.4433C41.8115 85.6447 42.5986 85.1622 43.646 85.1622C45.144 85.1622 45.9565 86.0573 45.9565 87.7076V92.1764H44.8774V87.9806C44.8774 86.7365 44.3696 86.1525 43.2968 86.1525C42.1606 86.1525 41.3989 86.9459 41.3989 88.1202V92.1764H40.3198ZM47.6164 85.2892H48.7716L50.695 91.0211H50.7775L52.6881 85.2892H53.8371L51.3234 92.1764H50.1364L47.6164 85.2892ZM58.3153 92.3033C56.4935 92.3033 55.3319 91.1163 55.3319 89.2565V88.2155C55.3319 86.3556 56.4935 85.1686 58.3153 85.1686C60.1371 85.1686 61.2987 86.3556 61.2987 88.2155V89.2565C61.2987 91.1163 60.1371 92.3033 58.3153 92.3033ZM58.3153 86.1207C57.1346 86.1207 56.3983 86.9586 56.3983 88.3107V89.1549C56.3983 90.5133 57.1346 91.3448 58.3153 91.3448C59.496 91.3448 60.2323 90.5133 60.2323 89.1549V88.3107C60.2323 86.9586 59.496 86.1207 58.3153 86.1207ZM66.0245 83.6007C65.5167 83.6007 65.1295 83.2198 65.1295 82.712C65.1295 82.2106 65.5167 81.8297 66.0245 81.8297C66.5323 81.8297 66.9195 82.2106 66.9195 82.712C66.9195 83.2198 66.5323 83.6007 66.0245 83.6007ZM68.9127 92.1764H63.2061V91.2814H65.5675V86.1842H63.2252V85.2892H66.6339V91.2814H68.9127V92.1764ZM76.3616 87.4347H75.2952C75.1619 86.6285 74.489 86.1207 73.6004 86.1207C72.4007 86.1207 71.7342 86.9396 71.7342 88.4186V89.0406C71.7342 90.5197 72.4007 91.3322 73.6004 91.3322C74.489 91.3322 75.1619 90.8307 75.2952 90.0436H76.3616C76.1902 91.4464 75.1429 92.3033 73.6194 92.3033C71.7469 92.3033 70.6551 91.1544 70.6551 89.1803V88.2789C70.6551 86.3048 71.7469 85.1559 73.6194 85.1559C75.1429 85.1559 76.1839 86.0192 76.3616 87.4347ZM82.9409 90.399H83.9883C83.7788 91.5353 82.687 92.3033 81.2397 92.3033C79.3481 92.3033 78.25 91.1671 78.25 89.2057V88.171C78.25 86.3556 79.4116 85.1622 81.1636 85.1622C82.9536 85.1622 84.0073 86.3492 84.0073 88.3424V89.0153H79.3164V89.2946C79.3164 90.5577 80.0654 91.3702 81.2397 91.3702C82.1094 91.3702 82.7505 91.0021 82.9409 90.399ZM81.1572 86.089C80.0083 86.089 79.3164 86.8761 79.3164 88.1964H82.9409C82.9409 86.8824 82.2681 86.089 81.1572 86.089ZM58.7469 106.175C60.3402 106.175 61.3812 107.324 61.3812 109.095V110.377C61.3812 112.142 60.3402 113.291 58.7469 113.291C57.7504 113.291 57.0204 112.865 56.722 112.11H56.6014V115.5H55.5033V106.289H56.5697V107.343H56.684C57.0458 106.581 57.7631 106.175 58.7469 106.175ZM58.4359 107.165C57.2997 107.165 56.576 107.978 56.576 109.247V110.237C56.576 111.513 57.2997 112.326 58.4359 112.326C59.5721 112.326 60.2958 111.507 60.2958 110.237V109.247C60.2958 107.978 59.5721 107.165 58.4359 107.165ZM65.2056 113.297C63.8917 113.297 63.0157 112.472 63.0157 111.221C63.0157 110.003 63.8917 109.279 65.4595 109.196L67.3511 109.101V108.479C67.3511 107.616 66.8243 107.14 65.8658 107.14C65.0723 107.14 64.5137 107.476 64.336 108.067H63.276C63.4029 106.962 64.4693 106.207 65.8785 106.207C67.4971 106.207 68.4239 107.032 68.4239 108.466V113.183H67.3956V112.148H67.2877C66.9576 112.884 66.2086 113.297 65.2056 113.297ZM65.5167 112.351C66.5577 112.351 67.3511 111.659 67.3511 110.739V109.926L65.5802 110.009C64.6153 110.053 64.1075 110.466 64.1075 111.183C64.1075 111.907 64.647 112.351 65.5167 112.351ZM71.5628 115.627C71.4041 115.627 71.1946 115.62 71.0994 115.608V114.662C71.1819 114.681 71.3787 114.687 71.4803 114.687C72.1277 114.687 72.4832 114.395 72.7688 113.595L72.8894 113.221L70.3567 106.289H71.531L73.4607 112.053H73.5432L75.4666 106.289H76.6155L74.0193 113.43C73.4163 115.125 72.8387 115.627 71.5628 115.627ZM84.0898 113.176H78.3833V112.281H80.7383V104.48H78.4023V103.585H81.8174V112.281H84.0898V113.176ZM88.6696 113.303C86.8479 113.303 85.6862 112.116 85.6862 110.256V109.215C85.6862 107.356 86.8479 106.169 88.6696 106.169C90.4914 106.169 91.653 107.356 91.653 109.215V110.256C91.653 112.116 90.4914 113.303 88.6696 113.303ZM88.6696 107.121C87.489 107.121 86.7526 107.959 86.7526 109.311V110.155C86.7526 111.513 87.489 112.345 88.6696 112.345C89.8503 112.345 90.5866 111.513 90.5866 110.155V109.311C90.5866 107.959 89.8503 107.121 88.6696 107.121ZM95.56 113.297C94.246 113.297 93.37 112.472 93.37 111.221C93.37 110.003 94.246 109.279 95.8139 109.196L97.7055 109.101V108.479C97.7055 107.616 97.1786 107.14 96.2201 107.14C95.4267 107.14 94.8681 107.476 94.6903 108.067H93.6303C93.7572 106.962 94.8236 106.207 96.2328 106.207C97.8515 106.207 98.7782 107.032 98.7782 108.466V113.183H97.7499V112.148H97.642C97.3119 112.884 96.5629 113.297 95.56 113.297ZM95.871 112.351C96.912 112.351 97.7055 111.659 97.7055 110.739V109.926L95.9345 110.009C94.9696 110.053 94.4618 110.466 94.4618 111.183C94.4618 111.907 95.0014 112.351 95.871 112.351ZM103.415 113.291C101.822 113.291 100.781 112.142 100.781 110.371V109.089C100.781 107.324 101.822 106.175 103.415 106.175C104.412 106.175 105.148 106.6 105.446 107.356H105.561V103.585H106.659V113.176H105.599V112.123H105.478C105.123 112.884 104.399 113.291 103.415 113.291ZM103.733 112.307C104.862 112.307 105.592 111.494 105.592 110.218V109.228C105.592 107.959 104.862 107.146 103.733 107.146C102.596 107.146 101.866 107.959 101.866 109.228V110.218C101.866 111.488 102.596 112.307 103.733 112.307ZM111.435 108.339C110.807 108.339 110.286 107.806 110.286 107.165C110.286 106.524 110.807 105.991 111.435 105.991C112.064 105.991 112.584 106.524 112.584 107.165C112.584 107.806 112.064 108.339 111.435 108.339ZM111.435 113.214C110.807 113.214 110.286 112.688 110.286 112.04C110.286 111.399 110.807 110.872 111.435 110.872C112.064 110.872 112.584 111.399 112.584 112.04C112.584 112.688 112.064 113.214 111.435 113.214ZM55.808 128.149C55.808 126.956 56.8236 126.156 58.3407 126.156C59.7753 126.156 60.7465 126.873 60.8734 128.022H59.8324C59.7054 127.419 59.1278 127.051 58.3217 127.051C57.4457 127.051 56.8807 127.457 56.8807 128.086C56.8807 128.612 57.2362 128.911 58.0995 129.101L59.0707 129.323C60.41 129.628 61.0194 130.212 61.0194 131.209C61.0194 132.478 59.9593 133.303 58.328 133.303C56.7665 133.303 55.7318 132.573 55.6112 131.393H56.7093C56.868 132.027 57.4774 132.396 58.3661 132.396C59.3055 132.396 59.9022 131.97 59.9022 131.31C59.9022 130.764 59.5658 130.472 58.6898 130.276L57.6678 130.041C56.4237 129.755 55.808 129.127 55.808 128.149ZM64.7296 124.442H65.796V126.308H68.5889V127.229H65.8087V131.113C65.8087 131.862 66.3355 132.269 67.3067 132.269C67.6939 132.269 68.3858 132.25 68.5699 132.231V133.145C68.3985 133.176 67.5606 133.208 67.2305 133.208C65.523 133.208 64.7296 132.561 64.7296 131.126V127.229H62.8951V126.308H64.7296V124.442ZM72.7942 133.297C71.4803 133.297 70.6043 132.472 70.6043 131.221C70.6043 130.003 71.4803 129.279 73.0481 129.196L74.9397 129.101V128.479C74.9397 127.616 74.4129 127.14 73.4544 127.14C72.6609 127.14 72.1023 127.476 71.9246 128.067H70.8645C70.9915 126.962 72.0579 126.207 73.4671 126.207C75.0857 126.207 76.0125 127.032 76.0125 128.466V133.183H74.9842V132.148H74.8763C74.5462 132.884 73.7972 133.297 72.7942 133.297ZM73.1053 132.351C74.1463 132.351 74.9397 131.659 74.9397 130.739V129.926L73.1687 130.009C72.2039 130.053 71.6961 130.466 71.6961 131.183C71.6961 131.907 72.2356 132.351 73.1053 132.351ZM79.9067 124.442H80.9731V126.308H83.7661V127.229H80.9858V131.113C80.9858 131.862 81.5127 132.269 82.4839 132.269C82.8711 132.269 83.563 132.25 83.7471 132.231V133.145C83.5757 133.176 82.7378 133.208 82.4077 133.208C80.7002 133.208 79.9067 132.561 79.9067 131.126V127.229H78.0723V126.308H79.9067V124.442ZM91.488 126.289V133.176H90.4533V131.964H90.3645C89.9963 132.821 89.2092 133.303 88.1618 133.303C86.6638 133.303 85.8513 132.408 85.8513 130.758V126.289H86.9304V130.485C86.9304 131.729 87.4382 132.313 88.5109 132.313C89.6472 132.313 90.4089 131.52 90.4089 130.345V126.289H91.488ZM93.7509 128.149C93.7509 126.956 94.7665 126.156 96.2836 126.156C97.7182 126.156 98.6894 126.873 98.8163 128.022H97.7753C97.6483 127.419 97.0707 127.051 96.2646 127.051C95.3886 127.051 94.8236 127.457 94.8236 128.086C94.8236 128.612 95.1791 128.911 96.0424 129.101L97.0136 129.323C98.3529 129.628 98.9623 130.212 98.9623 131.209C98.9623 132.478 97.9022 133.303 96.2709 133.303C94.7094 133.303 93.6747 132.573 93.5541 131.393H94.6522C94.8109 132.027 95.4203 132.396 96.309 132.396C97.2484 132.396 97.8451 131.97 97.8451 131.31C97.8451 130.764 97.5087 130.472 96.6327 130.276L95.6107 130.041C94.3666 129.755 93.7509 129.127 93.7509 128.149ZM103.847 128.339C103.218 128.339 102.698 127.806 102.698 127.165C102.698 126.524 103.218 125.991 103.847 125.991C104.475 125.991 104.996 126.524 104.996 127.165C104.996 127.806 104.475 128.339 103.847 128.339ZM103.847 133.214C103.218 133.214 102.698 132.688 102.698 132.04C102.698 131.399 103.218 130.872 103.847 130.872C104.475 130.872 104.996 131.399 104.996 132.04C104.996 132.688 104.475 133.214 103.847 133.214ZM57.6171 154.297C56.3031 154.297 55.4271 153.472 55.4271 152.221C55.4271 151.003 56.3031 150.279 57.871 150.196L59.7626 150.101V149.479C59.7626 148.616 59.2357 148.14 58.2772 148.14C57.4838 148.14 56.9252 148.476 56.7474 149.067H55.6874C55.8143 147.962 56.8807 147.207 58.2899 147.207C59.9086 147.207 60.8353 148.032 60.8353 149.466V154.183H59.807V153.148H59.6991C59.369 153.884 58.62 154.297 57.6171 154.297ZM57.9281 153.351C58.9691 153.351 59.7626 152.659 59.7626 151.739V150.926L57.9916 151.009C57.0267 151.053 56.5189 151.466 56.5189 152.183C56.5189 152.907 57.0585 153.351 57.9281 153.351ZM69.2237 149.105V154.176H68.2525V149.422C68.2525 148.584 67.9478 148.146 67.3702 148.146C66.7672 148.146 66.399 148.673 66.399 149.53V154.176H65.4342V149.416C65.4342 148.584 65.1295 148.146 64.5455 148.146C63.9361 148.146 63.5553 148.673 63.5553 149.53V154.176H62.5841V147.289H63.5489V148.26H63.6632C63.8345 147.568 64.3297 147.162 64.9771 147.162C65.6246 147.162 66.0816 147.562 66.2276 148.241H66.3419C66.5196 147.581 67.0719 147.162 67.7637 147.162C68.7222 147.162 69.2237 147.829 69.2237 149.105ZM73.4925 154.303C71.6707 154.303 70.5091 153.116 70.5091 151.256V150.215C70.5091 148.356 71.6707 147.169 73.4925 147.169C75.3142 147.169 76.4759 148.356 76.4759 150.215V151.256C76.4759 153.116 75.3142 154.303 73.4925 154.303ZM73.4925 148.121C72.3118 148.121 71.5755 148.959 71.5755 150.311V151.155C71.5755 152.513 72.3118 153.345 73.4925 153.345C74.6731 153.345 75.4095 152.513 75.4095 151.155V150.311C75.4095 148.959 74.6731 148.121 73.4925 148.121ZM83.8994 147.289V154.176H82.8647V152.964H82.7759C82.4077 153.821 81.6206 154.303 80.5732 154.303C79.0752 154.303 78.2627 153.408 78.2627 151.758V147.289H79.3418V151.485C79.3418 152.729 79.8496 153.313 80.9224 153.313C82.0586 153.313 82.8203 152.52 82.8203 151.345V147.289H83.8994ZM85.8513 154.176V147.289H86.8859V148.502H86.9748C87.343 147.645 88.1301 147.162 89.1774 147.162C90.6755 147.162 91.488 148.057 91.488 149.708V154.176H90.4089V149.981C90.4089 148.736 89.9011 148.152 88.8283 148.152C87.6921 148.152 86.9304 148.946 86.9304 150.12V154.176H85.8513ZM95.0839 145.442H96.1503V147.308H98.9433V148.229H96.163V152.113C96.163 152.862 96.6898 153.269 97.661 153.269C98.0482 153.269 98.7401 153.25 98.9242 153.231V154.145C98.7528 154.176 97.9149 154.208 97.5849 154.208C95.8773 154.208 95.0839 153.561 95.0839 152.126V148.229H93.2494V147.308H95.0839V145.442ZM103.847 149.339C103.218 149.339 102.698 148.806 102.698 148.165C102.698 147.524 103.218 146.991 103.847 146.991C104.475 146.991 104.996 147.524 104.996 148.165C104.996 148.806 104.475 149.339 103.847 149.339ZM103.847 154.214C103.218 154.214 102.698 153.688 102.698 153.04C102.698 152.399 103.218 151.872 103.847 151.872C104.475 151.872 104.996 152.399 104.996 153.04C104.996 153.688 104.475 154.214 103.847 154.214ZM57.6171 174.297C56.3031 174.297 55.4271 173.472 55.4271 172.221C55.4271 171.003 56.3031 170.279 57.871 170.196L59.7626 170.101V169.479C59.7626 168.616 59.2357 168.14 58.2772 168.14C57.4838 168.14 56.9252 168.476 56.7474 169.067H55.6874C55.8143 167.962 56.8807 167.207 58.2899 167.207C59.9086 167.207 60.8353 168.032 60.8353 169.466V174.183H59.807V173.148H59.6991C59.369 173.884 58.62 174.297 57.6171 174.297ZM57.9281 173.351C58.9691 173.351 59.7626 172.659 59.7626 171.739V170.926L57.9916 171.009C57.0267 171.053 56.5189 171.466 56.5189 172.183C56.5189 172.907 57.0585 173.351 57.9281 173.351ZM63.3966 169.149C63.3966 167.956 64.4122 167.156 65.9293 167.156C67.3638 167.156 68.335 167.873 68.462 169.022H67.421C67.294 168.419 66.7164 168.051 65.9102 168.051C65.0343 168.051 64.4693 168.457 64.4693 169.086C64.4693 169.612 64.8248 169.911 65.6881 170.101L66.6593 170.323C67.9986 170.628 68.608 171.212 68.608 172.209C68.608 173.478 67.5479 174.303 65.9166 174.303C64.3551 174.303 63.3204 173.573 63.1998 172.393H64.2979C64.4566 173.027 65.066 173.396 65.9547 173.396C66.8941 173.396 67.4908 172.97 67.4908 172.31C67.4908 171.764 67.1544 171.472 66.2784 171.276L65.2564 171.041C64.0123 170.755 63.3966 170.127 63.3966 169.149ZM70.9851 169.149C70.9851 167.956 72.0008 167.156 73.5179 167.156C74.9524 167.156 75.9236 167.873 76.0506 169.022H75.0096C74.8826 168.419 74.305 168.051 73.4988 168.051C72.6228 168.051 72.0579 168.457 72.0579 169.086C72.0579 169.612 72.4134 169.911 73.2766 170.101L74.2478 170.323C75.5872 170.628 76.1966 171.212 76.1966 172.209C76.1966 173.478 75.1365 174.303 73.5052 174.303C71.9436 174.303 70.909 173.573 70.7884 172.393H71.8865C72.0452 173.027 72.6546 173.396 73.5432 173.396C74.4827 173.396 75.0794 172.97 75.0794 172.31C75.0794 171.764 74.743 171.472 73.867 171.276L72.845 171.041C71.6009 170.755 70.9851 170.127 70.9851 169.149ZM82.9409 172.399H83.9883C83.7788 173.535 82.687 174.303 81.2397 174.303C79.3481 174.303 78.25 173.167 78.25 171.206V170.171C78.25 168.356 79.4116 167.162 81.1636 167.162C82.9536 167.162 84.0073 168.349 84.0073 170.342V171.015H79.3164V171.295C79.3164 172.558 80.0654 173.37 81.2397 173.37C82.1094 173.37 82.7505 173.002 82.9409 172.399ZM81.1572 168.089C80.0083 168.089 79.3164 168.876 79.3164 170.196H82.9409C82.9409 168.882 82.2681 168.089 81.1572 168.089ZM87.4953 165.442H88.5617V167.308H91.3547V168.229H88.5744V172.113C88.5744 172.862 89.1013 173.269 90.0725 173.269C90.4597 173.269 91.1516 173.25 91.3356 173.231V174.145C91.1643 174.176 90.3264 174.208 89.9963 174.208C88.2888 174.208 87.4953 173.561 87.4953 172.126V168.229H85.6608V167.308H87.4953V165.442ZM96.2582 169.339C95.6298 169.339 95.1093 168.806 95.1093 168.165C95.1093 167.524 95.6298 166.991 96.2582 166.991C96.8866 166.991 97.4071 167.524 97.4071 168.165C97.4071 168.806 96.8866 169.339 96.2582 169.339ZM96.2582 174.214C95.6298 174.214 95.1093 173.688 95.1093 173.04C95.1093 172.399 95.6298 171.872 96.2582 171.872C96.8866 171.872 97.4071 172.399 97.4071 173.04C97.4071 173.688 96.8866 174.214 96.2582 174.214Z" fill="#61BAEF"/>
<path d="M87.2858 87.5934C87.2858 85.4415 87.9333 83.569 89.1965 82.1344H90.2692C88.9553 83.9816 88.403 85.6002 88.403 87.5934C88.403 89.5865 88.9553 91.2052 90.2692 93.0524H89.1965C87.9333 91.6178 87.2858 89.7516 87.2858 87.5934ZM127.933 104.017H128.891L128.117 108.149H126.803L127.933 104.017ZM125.483 104.017H126.441L125.667 108.149H124.353L125.483 104.017ZM134.322 104.601C133.814 104.601 133.427 104.22 133.427 103.712C133.427 103.211 133.814 102.83 134.322 102.83C134.83 102.83 135.217 103.211 135.217 103.712C135.217 104.22 134.83 104.601 134.322 104.601ZM137.21 113.176H131.503V112.281H133.865V107.184H131.522V106.289H134.931V112.281H137.21V113.176ZM140.615 104.442H141.682V106.308H144.475V107.229H141.694V111.113C141.694 111.862 142.221 112.269 143.193 112.269C143.58 112.269 144.272 112.25 144.456 112.231V113.145C144.284 113.176 143.446 113.208 143.116 113.208C141.409 113.208 140.615 112.561 140.615 111.126V107.229H138.781V106.308H140.615V104.442ZM151.238 111.399H152.285C152.076 112.535 150.984 113.303 149.537 113.303C147.645 113.303 146.547 112.167 146.547 110.206V109.171C146.547 107.356 147.709 106.162 149.461 106.162C151.251 106.162 152.305 107.349 152.305 109.342V110.015H147.614V110.295C147.614 111.558 148.363 112.37 149.537 112.37C150.407 112.37 151.048 112.002 151.238 111.399ZM149.454 107.089C148.306 107.089 147.614 107.876 147.614 109.196H151.238C151.238 107.882 150.565 107.089 149.454 107.089ZM160.287 108.105V113.176H159.315V108.422C159.315 107.584 159.011 107.146 158.433 107.146C157.83 107.146 157.462 107.673 157.462 108.53V113.176H156.497V108.416C156.497 107.584 156.192 107.146 155.608 107.146C154.999 107.146 154.618 107.673 154.618 108.53V113.176H153.647V106.289H154.612V107.26H154.726C154.898 106.568 155.393 106.162 156.04 106.162C156.688 106.162 157.145 106.562 157.291 107.241H157.405C157.583 106.581 158.135 106.162 158.827 106.162C159.785 106.162 160.287 106.829 160.287 108.105ZM164.555 108.339C163.927 108.339 163.407 107.806 163.407 107.165C163.407 106.524 163.927 105.991 164.555 105.991C165.184 105.991 165.704 106.524 165.704 107.165C165.704 107.806 165.184 108.339 164.555 108.339ZM164.555 113.214C163.927 113.214 163.407 112.688 163.407 112.04C163.407 111.399 163.927 110.872 164.555 110.872C165.184 110.872 165.704 111.399 165.704 112.04C165.704 112.688 165.184 113.214 164.555 113.214ZM175.464 108.105V113.176H174.493V108.422C174.493 107.584 174.188 107.146 173.61 107.146C173.007 107.146 172.639 107.673 172.639 108.53V113.176H171.674V108.416C171.674 107.584 171.37 107.146 170.786 107.146C170.176 107.146 169.795 107.673 169.795 108.53V113.176H168.824V106.289H169.789V107.26H169.903C170.075 106.568 170.57 106.162 171.217 106.162C171.865 106.162 172.322 106.562 172.468 107.241H172.582C172.76 106.581 173.312 106.162 174.004 106.162C174.962 106.162 175.464 106.829 175.464 108.105ZM179.733 113.303C177.911 113.303 176.749 112.116 176.749 110.256V109.215C176.749 107.356 177.911 106.169 179.733 106.169C181.554 106.169 182.716 107.356 182.716 109.215V110.256C182.716 112.116 181.554 113.303 179.733 113.303ZM179.733 107.121C178.552 107.121 177.816 107.959 177.816 109.311V110.155C177.816 111.513 178.552 112.345 179.733 112.345C180.913 112.345 181.65 111.513 181.65 110.155V109.311C181.65 107.959 180.913 107.121 179.733 107.121ZM184.503 113.176V106.289H185.537V107.502H185.626C185.995 106.645 186.782 106.162 187.829 106.162C189.327 106.162 190.14 107.057 190.14 108.708V113.176H189.06V108.981C189.06 107.736 188.553 107.152 187.48 107.152C186.344 107.152 185.582 107.946 185.582 109.12V113.176H184.503ZM193.735 104.442H194.802V106.308H197.595V107.229H194.815V111.113C194.815 111.862 195.341 112.269 196.313 112.269C196.7 112.269 197.392 112.25 197.576 112.231V113.145C197.404 113.176 196.566 113.208 196.236 113.208C194.529 113.208 193.735 112.561 193.735 111.126V107.229H191.901V106.308H193.735V104.442ZM199.674 113.176V103.585H200.715V107.508H200.804C201.165 106.651 201.959 106.169 203.012 106.169C204.511 106.169 205.323 107.07 205.323 108.714V113.176H204.244V108.987C204.244 107.749 203.736 107.159 202.657 107.159C201.521 107.159 200.753 107.952 200.753 109.127V113.176H199.674ZM213.096 113.176H207.389V112.281H209.744V104.48H207.408V103.585H210.823V112.281H213.096V113.176ZM215.746 115.627C215.587 115.627 215.378 115.62 215.282 115.608V114.662C215.365 114.681 215.562 114.687 215.663 114.687C216.311 114.687 216.666 114.395 216.952 113.595L217.072 113.221L214.54 106.289H215.714L217.644 112.053H217.726L219.65 106.289H220.799L218.202 113.43C217.599 115.125 217.022 115.627 215.746 115.627ZM228.559 115.157H221.97V114.224H228.559V115.157ZM233.284 106.175C234.878 106.175 235.919 107.324 235.919 109.095V110.377C235.919 112.142 234.878 113.291 233.284 113.291C232.288 113.291 231.558 112.865 231.259 112.11H231.139V115.5H230.041V106.289H231.107V107.343H231.221C231.583 106.581 232.3 106.175 233.284 106.175ZM232.973 107.165C231.837 107.165 231.113 107.978 231.113 109.247V110.237C231.113 111.513 231.837 112.326 232.973 112.326C234.109 112.326 234.833 111.507 234.833 110.237V109.247C234.833 107.978 234.109 107.165 232.973 107.165ZM240.168 110.091V112.313H242.301V113.176H237.724V112.313H239.115V107.152H237.585V106.289H240.156V108.047H240.295C240.549 106.772 241.406 106.111 242.733 106.111C243.126 106.111 243.501 106.169 243.729 106.264V107.476C243.412 107.362 242.968 107.286 242.593 107.286C241.07 107.286 240.168 108.339 240.168 110.091ZM249.89 111.399H250.937C250.728 112.535 249.636 113.303 248.189 113.303C246.297 113.303 245.199 112.167 245.199 110.206V109.171C245.199 107.356 246.36 106.162 248.112 106.162C249.902 106.162 250.956 107.349 250.956 109.342V110.015H246.265V110.295C246.265 111.558 247.014 112.37 248.189 112.37C249.058 112.37 249.699 112.002 249.89 111.399ZM248.106 107.089C246.957 107.089 246.265 107.876 246.265 109.196H249.89C249.89 107.882 249.217 107.089 248.106 107.089ZM258.938 108.105V113.176H257.967V108.422C257.967 107.584 257.662 107.146 257.085 107.146C256.482 107.146 256.114 107.673 256.114 108.53V113.176H255.149V108.416C255.149 107.584 254.844 107.146 254.26 107.146C253.651 107.146 253.27 107.673 253.27 108.53V113.176H252.299V106.289H253.263V107.26H253.378C253.549 106.568 254.044 106.162 254.692 106.162C255.339 106.162 255.796 106.562 255.942 107.241H256.056C256.234 106.581 256.786 106.162 257.478 106.162C258.437 106.162 258.938 106.829 258.938 108.105ZM263.328 104.601C262.82 104.601 262.433 104.22 262.433 103.712C262.433 103.211 262.82 102.83 263.328 102.83C263.835 102.83 264.223 103.211 264.223 103.712C264.223 104.22 263.835 104.601 263.328 104.601ZM266.216 113.176H260.509V112.281H262.871V107.184H260.528V106.289H263.937V112.281H266.216V113.176ZM273.614 106.289V113.176H272.579V111.964H272.49C272.122 112.821 271.335 113.303 270.288 113.303C268.79 113.303 267.977 112.408 267.977 110.758V106.289H269.056V110.485C269.056 111.729 269.564 112.313 270.637 112.313C271.773 112.313 272.535 111.52 272.535 110.345V106.289H273.614ZM281.704 108.105V113.176H280.733V108.422C280.733 107.584 280.428 107.146 279.85 107.146C279.247 107.146 278.879 107.673 278.879 108.53V113.176H277.914V108.416C277.914 107.584 277.61 107.146 277.026 107.146C276.416 107.146 276.036 107.673 276.036 108.53V113.176H275.064V106.289H276.029V107.26H276.143C276.315 106.568 276.81 106.162 277.457 106.162C278.105 106.162 278.562 106.562 278.708 107.241H278.822C279 106.581 279.552 106.162 280.244 106.162C281.202 106.162 281.704 106.829 281.704 108.105ZM284.602 108.028H283.643L284.418 103.896H285.725L284.602 108.028ZM287.052 108.028H286.093L286.868 103.896H288.175L287.052 108.028ZM292.984 115.284H291.962L292.749 111.158H294.177L292.984 115.284ZM127.933 124.017H128.891L128.117 128.149H126.803L127.933 124.017ZM125.483 124.017H126.441L125.667 128.149H124.353L125.483 124.017ZM134.633 126.175C136.226 126.175 137.267 127.324 137.267 129.095V130.377C137.267 132.142 136.226 133.291 134.633 133.291C133.636 133.291 132.906 132.865 132.608 132.11H132.487V135.5H131.389V126.289H132.456V127.343H132.57C132.932 126.581 133.649 126.175 134.633 126.175ZM134.322 127.165C133.185 127.165 132.462 127.978 132.462 129.247V130.237C132.462 131.513 133.185 132.326 134.322 132.326C135.458 132.326 136.182 131.507 136.182 130.237V129.247C136.182 127.978 135.458 127.165 134.322 127.165ZM141.091 133.297C139.777 133.297 138.902 132.472 138.902 131.221C138.902 130.003 139.777 129.279 141.345 129.196L143.237 129.101V128.479C143.237 127.616 142.71 127.14 141.752 127.14C140.958 127.14 140.4 127.476 140.222 128.067H139.162C139.289 126.962 140.355 126.207 141.764 126.207C143.383 126.207 144.31 127.032 144.31 128.466V133.183H143.281V132.148H143.173C142.843 132.884 142.094 133.297 141.091 133.297ZM141.402 132.351C142.444 132.351 143.237 131.659 143.237 130.739V129.926L141.466 130.009C140.501 130.053 139.993 130.466 139.993 131.183C139.993 131.907 140.533 132.351 141.402 132.351ZM149.499 124.601C148.991 124.601 148.604 124.22 148.604 123.712C148.604 123.211 148.991 122.83 149.499 122.83C150.007 122.83 150.394 123.211 150.394 123.712C150.394 124.22 150.007 124.601 149.499 124.601ZM152.387 133.176H146.681V132.281H149.042V127.184H146.7V126.289H150.108V132.281H152.387V133.176ZM156.535 133.291C154.942 133.291 153.901 132.142 153.901 130.371V129.089C153.901 127.324 154.942 126.175 156.535 126.175C157.532 126.175 158.268 126.6 158.566 127.356H158.681V123.585H159.779V133.176H158.719V132.123H158.598C158.243 132.884 157.519 133.291 156.535 133.291ZM156.853 132.307C157.982 132.307 158.712 131.494 158.712 130.218V129.228C158.712 127.959 157.982 127.146 156.853 127.146C155.716 127.146 154.986 127.959 154.986 129.228V130.218C154.986 131.488 155.716 132.307 156.853 132.307ZM163.184 128.028H162.226L163 123.896H164.308L163.184 128.028ZM165.635 128.028H164.676L165.45 123.896H166.758L165.635 128.028ZM171.566 135.284H170.544L171.332 131.158H172.76L171.566 135.284ZM127.933 145.017H128.891L128.117 149.149H126.803L127.933 145.017ZM125.483 145.017H126.441L125.667 149.149H124.353L125.483 145.017ZM133.084 149.93V148.99H134.081C135.109 148.99 135.826 148.318 135.826 147.359C135.826 146.426 135.141 145.81 134.106 145.81C133.078 145.81 132.392 146.413 132.303 147.397H131.23C131.338 145.81 132.456 144.826 134.15 144.826C135.788 144.826 136.956 145.81 136.956 147.2C136.956 148.305 136.378 149.092 135.394 149.333V149.435C136.613 149.593 137.337 150.45 137.337 151.701C137.337 153.256 136.029 154.367 134.201 154.367C132.392 154.367 131.135 153.326 131.053 151.745H132.113C132.214 152.723 133.027 153.358 134.169 153.358C135.426 153.358 136.207 152.71 136.207 151.675C136.207 150.609 135.401 149.93 134.131 149.93H133.084ZM141.79 154.214C141.161 154.214 140.641 153.688 140.641 153.04C140.641 152.399 141.161 151.872 141.79 151.872C142.418 151.872 142.939 152.399 142.939 153.04C142.939 153.688 142.418 154.214 141.79 154.214ZM146.249 147.956C146.249 146.14 147.556 144.826 149.366 144.826C151.175 144.826 152.476 146.128 152.476 147.956C152.476 148.997 152.108 149.968 151.206 151.276C151.124 151.415 149.226 154.081 149.156 154.176H147.874L150.369 150.742C150.578 150.457 150.622 150.374 150.68 150.273L150.584 150.222C150.311 150.59 149.664 150.863 149.086 150.863C147.449 150.863 146.249 149.631 146.249 147.956ZM149.359 145.823C148.21 145.823 147.334 146.724 147.334 147.899C147.334 149.079 148.21 149.981 149.359 149.981C150.515 149.981 151.39 149.079 151.39 147.899C151.39 146.724 150.515 145.823 149.359 145.823ZM153.837 147.956C153.837 146.14 155.145 144.826 156.954 144.826C158.763 144.826 160.065 146.128 160.065 147.956C160.065 148.997 159.696 149.968 158.795 151.276C158.712 151.415 156.815 154.081 156.745 154.176H155.462L157.957 150.742C158.167 150.457 158.211 150.374 158.268 150.273L158.173 150.222C157.9 150.59 157.252 150.863 156.675 150.863C155.037 150.863 153.837 149.631 153.837 147.956ZM156.948 145.823C155.799 145.823 154.923 146.724 154.923 147.899C154.923 149.079 155.799 149.981 156.948 149.981C158.103 149.981 158.979 149.079 158.979 147.899C158.979 146.724 158.103 145.823 156.948 145.823ZM163.184 149.028H162.226L163 144.896H164.308L163.184 149.028ZM165.635 149.028H164.676L165.45 144.896H166.758L165.635 149.028ZM171.566 156.284H170.544L171.332 152.158H172.76L171.566 156.284ZM127.933 165.017H128.891L128.117 169.149H126.803L127.933 165.017ZM125.483 165.017H126.441L125.667 169.149H124.353L125.483 165.017ZM134.201 173.307C135.534 173.307 136.309 172.431 136.309 170.926V165.017H137.426V170.996C137.426 173.104 136.22 174.367 134.201 174.367C132.183 174.367 130.977 173.104 130.977 170.996V165.017H132.094V170.926C132.094 172.431 132.868 173.307 134.201 173.307ZM138.654 171.739H139.746C139.86 172.742 140.666 173.351 141.885 173.351C143.104 173.351 143.903 172.716 143.903 171.733C143.903 170.939 143.37 170.463 142.132 170.158L141.345 169.962C139.644 169.53 138.876 168.724 138.876 167.397C138.876 165.836 140.05 164.826 141.879 164.826C143.605 164.826 144.792 165.823 144.868 167.346H143.777C143.662 166.401 142.964 165.842 141.885 165.842C140.711 165.842 140.006 166.401 140.006 167.334C140.006 168.127 140.514 168.584 141.707 168.882L142.507 169.086C144.284 169.524 145.033 170.298 145.033 171.675C145.033 173.319 143.796 174.367 141.879 174.367C139.987 174.367 138.749 173.364 138.654 171.739ZM146.376 165.017H148.94C151.536 165.017 152.844 166.547 152.844 169.581C152.844 172.64 151.536 174.176 148.94 174.176H146.376V165.017ZM147.499 166.045V173.148H148.839C150.781 173.148 151.702 172.012 151.702 169.587C151.702 167.188 150.775 166.045 148.839 166.045H147.499ZM157.525 174.176H156.408V166.045H153.641V165.017H160.293V166.045H157.525V174.176ZM163.184 169.028H162.226L163 164.896H164.308L163.184 169.028ZM165.635 169.028H164.676L165.45 164.896H166.758L165.635 169.028ZM36.9333 190.593C36.9333 192.752 36.2859 194.618 35.0227 196.052H33.95C35.2639 194.205 35.8162 192.587 35.8162 190.593C35.8162 188.6 35.2639 186.982 33.95 185.134H35.0227C36.2859 186.569 36.9333 188.442 36.9333 190.593Z" fill="white"/>
<defs>
<linearGradient id="paint0_linear_955_5143" x1="164.068" y1="323.246" x2="164.068" y2="-16.8645" gradientUnits="userSpaceOnUse">
<stop stop-color="#C2E9FB"/>
<stop offset="1" stop-color="#A1C4FD"/>
</linearGradient>
</defs>
</svg>
