<svg width="75" height="69" viewBox="0 0 75 69" fill="none" xmlns="http://www.w3.org/2000/svg">
<g filter="url(#filter0_dd_1326_126)">
<rect x="6" width="63" height="63" rx="31.5" fill="url(#paint0_linear_1326_126)"/>
<path fill-rule="evenodd" clip-rule="evenodd" d="M14.5091 27.5099C14.4034 27.5099 14.3773 27.4568 14.4299 27.3781L14.9838 26.6659C15.036 26.5867 15.1682 26.534 15.2735 26.534H24.6872C24.7929 26.534 24.819 26.6132 24.7664 26.6924L24.3182 27.3781C24.2656 27.4568 24.1338 27.536 24.0546 27.536L14.5091 27.5099ZM10.5273 29.9354C10.422 29.9354 10.3955 29.8832 10.4481 29.8036L11.002 29.0918C11.0546 29.0126 11.1865 28.96 11.2922 28.96H23.3158C23.4211 28.96 23.4742 29.0392 23.4477 29.1184L23.2367 29.751C23.2106 29.8567 23.1048 29.9093 22.9995 29.9093L10.5273 29.9354ZM16.9081 32.3614C16.8028 32.3614 16.7767 32.2822 16.8293 32.203L17.1983 31.5439C17.2514 31.4647 17.3567 31.386 17.4624 31.386H22.7355C22.8412 31.386 22.8938 31.4647 22.8938 31.5704L22.8416 32.203C22.8416 32.3087 22.7359 32.3879 22.6567 32.3879L16.9081 32.3614ZM44.2785 27.0352C42.617 27.4573 41.4832 27.7736 39.8486 28.1951C39.4527 28.3009 39.4266 28.327 39.0837 27.9315C38.6882 27.4834 38.3981 27.1932 37.8446 26.9295C36.1831 26.1124 34.5746 26.3496 33.0719 27.3254C31.279 28.4853 30.3562 30.1991 30.3823 32.3349C30.4084 34.4445 31.8589 36.1848 33.942 36.475C35.735 36.7121 37.2382 36.0791 38.4246 34.7347C38.6617 34.4445 38.8727 34.1282 39.1364 33.7588H34.0473C33.4939 33.7588 33.3621 33.416 33.5466 32.9679C33.8894 32.1504 34.522 30.7795 34.8909 30.0938C34.9706 29.9354 35.155 29.6718 35.5505 29.6718H45.1482C45.096 30.384 45.096 31.0958 44.9903 31.808C44.7001 33.7062 43.9883 35.4465 42.828 36.9758C40.9293 39.4809 38.4511 41.0363 35.313 41.4583C32.7291 41.8012 30.3296 41.3 28.2204 39.718C26.2691 38.2414 25.1618 36.2901 24.8717 33.8646C24.5288 30.9905 25.3724 28.4061 27.1127 26.1386C28.9848 23.6865 31.4634 22.1307 34.4959 21.5768C36.9745 21.1287 39.3474 21.4189 41.4832 22.869C42.8806 23.7918 43.8826 25.0574 44.5417 26.5867C44.7001 26.8242 44.5948 26.9561 44.2781 27.0348L44.2785 27.0352Z" fill="white"/>
<path d="M53.0063 41.6168C50.6069 41.5637 48.418 40.8785 46.5724 39.2961C45.0166 37.9517 44.0412 36.2376 43.7249 34.2071C43.2502 31.2277 44.0673 28.5907 45.8607 26.2444C47.7854 23.7127 50.1057 22.3944 53.2438 21.8406C55.933 21.3664 58.4647 21.63 60.7584 23.1854C62.8415 24.6094 64.1333 26.5341 64.4761 29.0654C64.9242 32.6252 63.8961 35.5258 61.4436 38.0044C59.7033 39.7708 57.5676 40.8785 55.1155 41.3792C54.4037 41.5111 53.6915 41.5376 53.0063 41.6168ZM59.2818 30.9641C59.2557 30.6212 59.2557 30.3576 59.2026 30.0939C58.7284 27.4835 56.3285 26.0068 53.8238 26.5872C51.3713 27.1406 49.7894 28.6965 49.2094 31.1751C48.7347 33.2316 49.7367 35.3148 51.6349 36.1584C53.0855 36.7914 54.5356 36.7122 55.933 36.0005C58.0161 34.9193 59.1499 33.2317 59.2818 30.9641Z" fill="white"/>
</g>
<defs>
<filter id="filter0_dd_1326_126" x="0.75" y="-5.25" width="73.5" height="73.5" filterUnits="userSpaceOnUse" color-interpolation-filters="sRGB">
<feFlood flood-opacity="0" result="BackgroundImageFix"/>
<feColorMatrix in="SourceAlpha" type="matrix" values="0 0 0 0 0 0 0 0 0 0 0 0 0 0 0 0 0 0 127 0" result="hardAlpha"/>
<feOffset/>
<feGaussianBlur stdDeviation="2.625"/>
<feComposite in2="hardAlpha" operator="out"/>
<feColorMatrix type="matrix" values="0 0 0 0 0.715625 0 0 0 0 0.728516 0 0 0 0 0.75 0 0 0 0.04 0"/>
<feBlend mode="normal" in2="BackgroundImageFix" result="effect1_dropShadow_1326_126"/>
<feColorMatrix in="SourceAlpha" type="matrix" values="0 0 0 0 0 0 0 0 0 0 0 0 0 0 0 0 0 0 127 0" result="hardAlpha"/>
<feOffset dy="1.3125"/>
<feGaussianBlur stdDeviation="0.984375"/>
<feComposite in2="hardAlpha" operator="out"/>
<feColorMatrix type="matrix" values="0 0 0 0 0 0 0 0 0 0 0 0 0 0 0 0 0 0 0.02 0"/>
<feBlend mode="normal" in2="effect1_dropShadow_1326_126" result="effect2_dropShadow_1326_126"/>
<feBlend mode="normal" in="SourceGraphic" in2="effect2_dropShadow_1326_126" result="shape"/>
</filter>
<linearGradient id="paint0_linear_1326_126" x1="12.9563" y1="2.625" x2="55.2844" y2="63" gradientUnits="userSpaceOnUse">
<stop stop-color="#00ACD7"/>
<stop offset="1" stop-color="#00A8D3"/>
</linearGradient>
</defs>
</svg>
