<svg width="74" height="69" viewBox="0 0 74 69" fill="none" xmlns="http://www.w3.org/2000/svg">
<g filter="url(#filter0_dd_1326_114)">
<rect x="5.5" width="63" height="63" rx="31.5" fill="url(#paint0_linear_1326_114)"/>
<path d="M57.0037 17.6917L38.9171 7.18966C37.7764 6.53997 36.2913 6.53997 35.1416 7.18966L16.8617 17.6917C15.6846 18.3689 14.8516 19.6416 14.8516 21.0029V41.9791C14.8516 43.3404 15.7063 44.6135 16.8835 45.2944L21.7131 48.0375C24.0214 49.1745 24.8372 49.1745 25.8876 49.1745C29.3055 49.1745 31.2578 47.1077 31.2578 43.5028V22.7941C31.2578 22.5016 31.1056 22.0664 30.8185 22.0664H28.5122C28.2202 22.0664 27.5664 22.5016 27.5664 22.7936V43.5024C27.5664 45.1004 26.121 46.6906 23.4197 45.3399L18.4294 42.4635C18.2554 42.3692 18.1328 42.1793 18.1328 41.9791V21.0029C18.1328 20.8052 18.3604 20.6067 18.5356 20.5054L36.7564 10.0214C36.9266 9.92499 37.1768 9.92499 37.3466 10.0214L55.3451 20.5029C55.5173 20.6067 55.4566 20.7991 55.4566 21.0029V41.9791C55.4566 42.1793 55.5317 42.3741 55.3615 42.4705L37.2793 52.9606C37.1243 53.0537 36.9319 53.0537 36.7621 52.9606L32.1245 50.1925C31.9846 50.1113 31.8185 50.0822 31.6844 50.1572C30.394 50.8885 30.1561 50.9857 28.9458 51.4053C28.648 51.5091 28.2087 51.6892 29.1139 52.1965L35.1834 55.787C35.7629 56.1217 36.4202 56.298 37.0894 56.2981C37.7629 56.2981 38.4224 56.1233 39.0036 55.787L57.0033 45.2944C58.1805 44.6086 58.7383 43.3404 58.7383 41.9791V21.0029C58.7383 19.6416 58.1805 18.3722 57.0037 17.6917ZM42.7053 38.6552C37.8958 38.6552 36.8363 37.3283 36.4832 34.9367C36.4422 34.6791 36.2236 34.3711 35.9615 34.3711H33.6109C33.3201 34.3711 33.0863 34.7239 33.0863 35.0134C33.0863 38.0757 34.7511 41.7859 42.7057 41.7859C48.4639 41.7859 51.7652 39.5485 51.7652 35.5889C51.7652 31.6629 49.1127 30.6325 43.5285 29.8934C37.8839 29.1474 37.3105 28.7704 37.3105 27.4481C37.3105 26.3579 37.7961 24.9039 41.9756 24.9039C45.7101 24.9039 47.0866 25.7053 47.653 28.2225C47.7014 28.4591 47.9175 28.6289 48.1616 28.6289H50.5216C50.6668 28.6289 50.8054 28.5703 50.9072 28.4665C51.0056 28.355 51.0577 28.2151 51.0446 28.065C50.6791 23.7304 47.7994 21.7104 41.9752 21.7104C36.7945 21.7104 33.704 23.8982 33.704 27.5654C33.704 31.5431 36.7789 32.6423 41.7521 33.1341C47.7014 33.7173 48.164 34.5869 48.164 35.757C48.164 37.7894 46.5324 38.6552 42.7053 38.6552Z" fill="white"/>
</g>
<defs>
<filter id="filter0_dd_1326_114" x="0.25" y="-5.25" width="73.5" height="73.5" filterUnits="userSpaceOnUse" color-interpolation-filters="sRGB">
<feFlood flood-opacity="0" result="BackgroundImageFix"/>
<feColorMatrix in="SourceAlpha" type="matrix" values="0 0 0 0 0 0 0 0 0 0 0 0 0 0 0 0 0 0 127 0" result="hardAlpha"/>
<feOffset/>
<feGaussianBlur stdDeviation="2.625"/>
<feComposite in2="hardAlpha" operator="out"/>
<feColorMatrix type="matrix" values="0 0 0 0 0.715625 0 0 0 0 0.728516 0 0 0 0 0.75 0 0 0 0.04 0"/>
<feBlend mode="normal" in2="BackgroundImageFix" result="effect1_dropShadow_1326_114"/>
<feColorMatrix in="SourceAlpha" type="matrix" values="0 0 0 0 0 0 0 0 0 0 0 0 0 0 0 0 0 0 127 0" result="hardAlpha"/>
<feOffset dy="1.3125"/>
<feGaussianBlur stdDeviation="0.984375"/>
<feComposite in2="hardAlpha" operator="out"/>
<feColorMatrix type="matrix" values="0 0 0 0 0 0 0 0 0 0 0 0 0 0 0 0 0 0 0.02 0"/>
<feBlend mode="normal" in2="effect1_dropShadow_1326_114" result="effect2_dropShadow_1326_114"/>
<feBlend mode="normal" in="SourceGraphic" in2="effect2_dropShadow_1326_114" result="shape"/>
</filter>
<linearGradient id="paint0_linear_1326_114" x1="5.76244" y1="2.625" x2="63.5124" y2="67.2656" gradientUnits="userSpaceOnUse">
<stop stop-color="#83CD29"/>
<stop offset="1" stop-color="#74BE1A"/>
</linearGradient>
</defs>
</svg>
