<svg width="40" height="40" viewBox="0 0 40 40" fill="none" xmlns="http://www.w3.org/2000/svg">
<path d="M32 21.0533C31.7902 23.3229 30.9385 25.4859 29.5443 27.2891C28.1502 29.0922 26.2713 30.4611 24.1276 31.2354C21.9839 32.0097 19.664 32.1575 17.4393 31.6615C15.2147 31.1654 13.1773 30.0461 11.5656 28.4344C9.95393 26.8227 8.83458 24.7853 8.33853 22.5607C7.84249 20.336 7.99028 18.0161 8.7646 15.8724C9.53893 13.7287 10.9078 11.8498 12.7109 10.4557C14.5141 9.06152 16.6771 8.20974 18.9467 8C17.6179 9.79769 16.9785 12.0126 17.1447 14.2419C17.3109 16.4712 18.2718 18.5667 19.8525 20.1475C21.4332 21.7282 23.5288 22.689 25.7581 22.8553C27.9874 23.0215 30.2023 22.3821 32 21.0533Z" stroke="white" stroke-opacity="0.8" stroke-width="2" stroke-linecap="round" stroke-linejoin="round"/>
</svg>
