<svg width="46" height="46" viewBox="0 0 46 46" fill="none" xmlns="http://www.w3.org/2000/svg">
<g clip-path="url(#clip0_11590_1129)">
<path d="M0 0H46V46H0V0Z" fill="#44A3DD"/>
<path d="M8.98458 16.5312H18.4547C19.166 16.5312 19.8202 16.9204 20.1598 17.5453L28.5918 33.0625H17.3088C16.5976 33.0625 15.9433 32.6734 15.6037 32.0484L8.03728 18.1241C7.75299 17.601 7.94664 16.9464 8.46982 16.6621C8.62781 16.5762 8.80477 16.5312 8.98458 16.5312Z" fill="#BEE5F7"/>
<path d="M37.0811 16.5312C37.2609 16.5312 37.4378 16.5762 37.5958 16.6621C38.1031 16.9378 38.3006 17.5616 38.0529 18.0762L38.0284 18.1241L30.4619 32.0484C30.1333 32.6532 29.5099 33.0372 28.8254 33.0613L28.7568 33.0625H17.6497H17.3089L17.2401 33.0613C16.8823 33.0486 16.5412 32.9377 16.2502 32.7483C16.396 32.8321 16.5611 32.886 16.7371 32.9019C16.7558 32.9036 16.9066 32.9176 17.0745 32.8725C17.1455 32.8534 17.4076 32.7922 17.6853 32.5325C17.7684 32.4548 17.8845 32.288 18.0337 32.0321L25.9058 17.5453C26.2344 16.9405 26.8578 16.5566 27.5423 16.5325L27.6109 16.5312H37.0811Z" fill="white"/>
</g>
<defs>
<clipPath id="clip0_11590_1129">
<rect width="46" height="46" rx="12" fill="white"/>
</clipPath>
</defs>
</svg>
